<?xml version="1.0" standalone="no"?><!DOCTYPE svg PUBLIC "-//W3C//DTD SVG 1.1//EN" "http://www.w3.org/Graphics/SVG/1.1/DTD/svg11.dtd"><svg class="icon" style="width: 5em; height: 5em;vertical-align: middle;fill: currentColor;overflow: hidden;" viewBox="0 0 1024 1024" version="1.1" xmlns="http://www.w3.org/2000/svg"><path d="M494.757802 652.384307l-76.553537 0 0 76.553537 76.553537 0L494.757802 652.384307zM479.468584 716.358341l-8.457626 0 0-6.072299-29.16832 0 0 6.072299-8.457626 0 0-47.385217 46.083571 0L479.468584 716.358341zM640.924813 707.033975l30.795377 0 0 21.361517-30.795377 0 0-21.361517ZM441.842639 676.565033l29.16832 0 0 26.13217-29.16832 0 0-26.13217ZM192.665533 128.74113c-20.439518 0-37.010939 16.572444-37.010939 37.011962l0 656.960533c0 20.439518 16.571421 37.010939 37.010939 37.010939l675.461909 0L868.127442 128.74113 192.665533 128.74113zM516.507152 323.05265l175.815261 166.976966-19.030425 18.080797L516.517385 359.178429l-156.775626 148.931984-19.029402-18.080797L516.507152 323.05265zM627.479593 659.865699l0-7.265474 27.107381 0c-1.410116-3.25309-3.542686-7.232728-6.39771-11.93175l7.482415-3.470031c3.25309 5.421476 5.565762 9.722432 6.939039 12.906961l-5.313006 2.494821 27.976168 0 0 7.265474L627.479593 659.865699zM651.226436 676.889421l-7.372921 4.229325c-2.241041-4.553713-5.27719-9.759271-9.108448-15.614629l6.614651-4.012384C644.973012 666.624636 648.261918 671.756517 651.226436 676.889421zM615.660406 666.914232l0 51.938929-8.349155 0 0-44.132126-41.854247 0 0 44.566008-8.349155 0 0-52.372811 20.276812 0 3.036149-14.639418L555.914674 652.274814l0-7.81192 64.624856 0 0 7.81192-31.337729 0-3.470031 14.639418L615.660406 666.914232zM330.483388 645.439128c23.060205-0.288572 43.806715-1.843998 62.240553-4.663206l3.036149 8.462742c-18.650779 1.951445-37.661761 3.217275-57.034994 3.795443l0 15.288195 52.481282 0 0 7.698333c-3.505847 10.228969-8.981559 19.410072-16.428158 27.542286 7.518231 5.963829 14.512529 11.783371 20.98187 17.457604l-6.505158 7.048533c-6.940063-6.28924-13.879102-12.379958-20.819165-18.270109-8.457626 7.554046-18.86772 14.078647-31.228235 19.571754-1.590218-2.240017-3.397377-4.553713-5.421476-6.939039 11.855002-5.132904 21.86703-11.205203 30.036084-18.216897-7.012717-5.856381-14.024411-11.530614-21.036106-17.024745l5.204535-5.638417c7.698333 5.746888 15.035438 11.33107 22.011316 16.752546 6.253424-6.650467 11.024078-14.114462 14.312984-22.390963l-43.589774 0c-0.072655 20.890796-5.16872 37.192064-15.289218 48.90278-1.590218-2.168386-3.505847-4.446265-5.746888-6.831592 8.529257-9.830903 12.794397-24.108071 12.794397-42.830481L330.483388 645.439128zM304.675606 639.909182c3.686972 4.482081 8.747221 11.31879 15.180747 20.497846l-7.698333 5.4225c-5.855358-9.181103-10.661827-16.265452-14.421454-21.25714L304.675606 639.909182zM396.084479 741.623771l-34.915207-0.107447-26.673499-0.325411c-12.361539-0.144286-20.999266-4.336772-25.915229-12.577456-2.963495 2.746554-7.30129 7.589862-13.012362 14.528901l-4.445242-8.999978c6.396687-6.179746 11.024078-10.607592 13.879102-13.282514l0-36.487006-12.902868 0 0-8.023744 21.253046 0 0 46.408983c4.373611 7.012717 12.108782 10.591219 23.204491 10.734482l27.108405 0.325411 35.45756-0.759293C398.325519 735.444025 397.313469 738.299049 396.084479 741.623771zM503.866251 743.683686l-9.107425 0 0-6.939039-76.553537 0 0 6.939039-9.108448 0 0-99.328239 94.76941 0L503.866251 743.683686zM539.431258 727.744669c0 8.601912-4.445242 12.902868-13.33675 12.902868-3.686972 0-6.650467-0.072655-8.890484-0.216941-0.36225-3.325745-0.940418-6.54302-1.735527-9.650801 3.325745 0.794086 6.758937 1.192152 10.3006 1.192152 3.471055 0 5.205559-1.661849 5.205559-4.987594l0-71.998801-17.457604 0 0-7.919367 40.336684 0 0 7.919367-14.422478 0L539.431258 727.744669zM614.792643 745.310743c-9.686616-8.024767-19.84293-15.614629-30.468942-22.771633-0.723477 1.445932-1.517563 2.747577-2.385327 3.903913-5.999644 8.240685-16.373922 14.674211-31.119765 19.300578-1.3743-2.38635-3.108804-4.988618-5.204535-7.807826 13.662161-3.90289 23.311939-9.324366 28.950356-16.265452 4.988618-6.505158 7.483438-16.337083 7.483438-29.492708l0-12.144598 8.348132 0 0 11.927657c0 9.035794-0.975211 16.73515-2.927679 23.094998 12.217253 7.807826 23.349801 15.470343 33.397644 22.988574L614.792643 745.310743zM679.743934 743.900627l-8.023744 0 0-8.023744-30.795377 0 0 8.131191-8.024767 0 0-44.239574 46.842865 0L679.74291 743.900627zM687.225325 688.491667l-62.132082 0 0-7.265474 34.698267 0c4.300956-7.444553 7.806803-14.240329 10.517541-20.385283l8.023744 4.120854c-3.143597 5.493108-6.487761 10.915607-10.029424 16.264429l18.920932 0L687.224302 688.491667zM717.368856 728.71988c-3.685949 0.433882-8.601912 0.288572-14.745842-0.433882-0.36225-2.602268-0.831948-5.782703-1.409093-9.541307 5.276167 0.867764 9.794064 1.300622 13.552667 1.300622 6.361895 0 9.253758-4.373611 8.67559-13.120832-0.288572-7.735172-5.819542-15.650445-16.58984-23.74582 4.699022-9.325389 9.469676-19.698644 14.31196-31.120788L699.044512 652.057873l0 92.493577-8.240685 0 0-100.521414 39.035038 0 0 8.895601c-2.819209 7.30129-7.191796 16.771989-13.119809 28.41005 10.19213 7.952112 15.288195 17.023722 15.288195 27.216875C732.008274 720.985732 727.128127 727.70783 717.368856 728.71988z" /></svg>